<?xml version="1.0" encoding="UTF-8"?>
<!-- Generated by Pixelmator Pro 3.7.1 -->
<svg width="892" height="533" viewBox="0 0 892 533" xmlns="http://www.w3.org/2000/svg">
    <g id="Color-3">
        <path id="ryan" fill="#020618" fill-rule="evenodd" stroke="none" d="M 761.477966 340.819946 L 761.477966 454.547821 L 721.905457 454.547821 L 721.905457 256.878296 L 760.694092 256.878296 L 761.164551 286.797363 L 761.164551 286.797363 C 769.424316 270.653778 766.985779 274.9823 778.539734 266.189331 C 790.09375 257.396362 804.062988 253 820.447693 253 C 834.048157 253 846.238037 255.946167 857.017944 261.838715 C 867.797791 267.731293 876.323059 276.480225 882.593872 288.085876 C 888.864685 299.691498 892 314.13501 892 331.416748 L 892 454.547821 L 852.427429 454.547821 L 852.427429 336.289429 C 852.427429 320.47403 848.649658 308.527283 841.093872 300.448975 C 833.538147 292.370667 822.87439 288.331543 809.102417 288.331543 C 800.166199 288.331543 792.104065 290.142456 784.915833 293.764404 C 777.7276 297.386261 772.024292 303.054443 767.805786 310.769165 C 763.587158 318.483826 761.477966 328.500641 761.477966 340.819946 Z M 265.896423 454.547821 L 265.896423 256.878296 L 303.836945 256.878296 L 303.836945 288.828796 L 304.518372 288.828796 C 308.13736 278.03418 313.855286 269.601105 321.672333 263.529266 C 329.489349 257.457336 339.687073 254.421387 352.265747 254.421387 C 355.270477 254.421387 358.034393 254.523773 360.557526 254.728546 C 363.080658 254.933319 365.123108 255.13797 366.684998 255.342743 L 366.684998 292.218628 C 365.191376 291.912476 362.497681 291.528839 358.603729 291.067657 C 354.709839 290.606506 350.442627 290.375977 345.801941 290.375977 C 338.474304 290.375977 331.736115 292.071869 325.587189 295.463623 C 319.438232 298.855438 314.548035 304.046448 310.916412 311.036774 C 307.28476 318.027039 305.468964 326.924194 305.468964 337.728455 L 305.468964 454.547821 Z M 393.791321 499.52536 L 393.791321 532.792053 L 418.921173 532.792053 C 427.910095 532.792053 436.0336 531.147339 443.292053 527.85791 C 450.550507 524.568481 456.92984 519.688965 462.43045 513.219238 C 467.93103 506.749573 472.540497 498.725983 476.258911 489.148193 L 566.038513 256.878296 L 524.374817 256.878296 L 485.340363 365.297607 C 481.735077 375.454498 478.210724 385.645874 474.767273 395.872009 C 471.323761 406.098083 472.967499 400.311584 469.826233 410.513306 C 466.640137 400.311584 469.190155 406.103973 465.786682 395.889526 C 462.383148 385.67511 458.838837 375.477905 455.153564 365.297607 L 415.674622 256.878296 L 373.414246 256.878296 L 449.839172 453.167328 L 440.769379 476.729462 C 438.782501 482.062408 436.590851 486.403229 434.194489 489.752167 C 431.798035 493.101044 429.076538 495.567139 426.029907 497.150452 C 422.983185 498.733704 419.355042 499.52536 415.145264 499.52536 L 393.791321 499.52536 Z M 582.325745 450.973694 C 592.638611 455.421387 604.357178 457.645142 617.481873 457.645142 C 628.833984 457.645142 638.33075 456.166229 645.97229 453.208282 C 653.613831 450.250336 659.833374 446.391571 664.631042 441.631927 C 669.428711 436.872284 673.192444 431.840668 675.92218 426.537048 L 676.670959 426.537048 L 676.670959 454.547821 L 715.597107 454.547821 L 715.597107 319.015594 C 715.597107 309.012726 713.805237 299.956177 710.221313 291.845642 C 706.637451 283.735168 701.446472 276.787384 694.648193 271.002136 C 687.849976 265.216797 679.588989 260.770203 669.86499 257.662109 C 660.14093 254.553986 649.201294 253 637.045776 253 C 620.616211 253 606.288696 255.739471 594.062927 261.218658 C 581.837219 266.697815 572.236633 274.238342 565.261047 283.840485 C 558.285278 293.442627 554.440674 304.554352 553.727051 317.175903 L 592.612244 317.175903 C 593.111389 311.055206 595.254822 305.604462 599.042419 300.823303 C 602.830078 296.042236 607.934753 292.274658 614.356628 289.520447 C 620.778625 286.766235 628.162231 285.38916 636.507629 285.38916 C 644.911621 285.38916 652.09729 286.800873 658.064819 289.624329 C 664.032471 292.447693 668.591675 296.326935 671.742676 301.262024 C 674.893738 306.197205 676.469177 311.890747 676.469177 318.342896 L 676.469177 320.01297 C 676.469177 324.756989 674.934692 328.149719 671.865479 330.191223 C 668.796448 332.232758 663.660034 333.729797 656.456238 334.682312 C 649.252441 335.634827 639.438354 336.894897 627.013672 338.462616 C 617.02063 339.620789 607.330322 341.299622 597.942688 343.499084 C 588.555054 345.698547 580.193665 348.905029 572.858154 353.118774 C 565.522766 357.332428 559.690308 363.045929 555.360535 370.259521 C 551.030884 377.473114 548.866089 386.735352 548.866089 398.04657 C 548.866089 411.149719 551.864441 422.134674 557.861267 431.00174 C 563.858093 439.868774 572.012878 446.526062 582.325745 450.973694 Z M 654.300659 419.611084 C 646.740051 423.818939 637.155029 425.922791 625.545471 425.922791 C 617.925354 425.922791 611.316406 424.838684 605.718262 422.670471 C 600.120178 420.502167 595.796875 417.382446 592.748291 413.311096 C 589.699585 409.239746 588.175354 404.394348 588.175354 398.774811 C 588.175354 392.02829 590.094971 386.602814 593.934265 382.498322 C 597.77356 378.393829 602.812927 375.186371 609.052551 372.875763 C 615.292175 370.565125 621.992798 368.922424 629.154724 367.947449 C 634.388184 367.222168 639.540161 366.45047 644.610779 365.632477 C 649.681458 364.814514 654.400085 363.971252 658.766785 363.102539 C 663.133545 362.233887 666.857727 361.334015 669.939514 360.402954 C 673.021301 359.471863 675.242737 358.489655 676.603699 357.456238 L 676.603699 380.550415 C 676.603699 388.665771 674.776733 396.15274 671.12262 403.011444 C 667.468567 409.870087 661.861267 415.403259 654.300659 419.611084 Z"/>
        <path id="-" fill="#fb0b3f" fill-rule="evenodd" stroke="#fb0b3f" stroke-width="4" stroke-linecap="round" stroke-linejoin="round" d="M 181.807693 364.154053 C 181.803391 351.34021 183.535202 341.596008 187.003326 334.920959 C 190.471466 328.246002 196.876328 322.370911 206.217941 317.295654 C 197.139877 312.493561 190.797913 306.556091 187.191605 299.483032 C 183.585312 292.409973 181.780106 282.60022 181.775909 270.053406 L 181.754059 241.747925 C 181.7491 227.06546 179.209778 217.389374 174.136093 212.719391 C 169.062408 208.049408 158.784058 205.717133 143.300797 205.722321 L 143.292191 180.495392 L 154.504211 180.491547 C 174.792755 180.484711 189.276245 184.951263 197.955231 193.891266 C 206.634216 202.831268 210.97731 217.979126 210.984482 239.335419 L 211.006882 269.242584 C 211.013947 290.33197 218.626282 302.742554 233.843903 306.474731 L 233.851852 330.100037 C 218.636993 334.376404 211.032822 346.25827 211.039444 365.74585 L 211.063278 400.057739 C 211.069901 419.54538 206.669983 433.561707 197.863403 442.107208 C 189.056839 450.652649 174.64299 454.928772 154.621414 454.935547 L 143.4095 454.939301 L 143.400894 429.712311 C 158.884155 429.440186 169.160858 427.034119 174.231445 422.494202 C 179.302032 417.954285 181.834961 408.743683 181.830322 394.862061 Z M 52.273697 180.928802 C 52.278114 194.00946 50.546253 203.820435 47.078068 210.361938 C 43.609882 216.903564 37.205067 222.711914 27.863407 227.787018 C 36.941467 232.589203 43.283485 238.526672 46.88979 245.599731 C 50.49604 252.672729 52.301289 262.482574 52.305481 275.029358 L 52.327278 393.74353 C 52.332245 408.425995 54.871567 418.102051 59.945248 422.772034 C 65.018929 427.442017 75.297287 429.774353 90.780602 429.769104 L 90.789154 454.996063 L 79.176743 455 C 58.888256 455.006836 44.471478 450.540314 35.925915 441.60025 C 27.380407 432.660217 23.104094 417.512268 23.096865 396.156006 L 23.074516 275.840088 C 23.070654 264.361084 21.33256 255.819336 17.860291 250.214478 C 14.387965 244.609619 8.513773 240.740814 0.237493 238.608032 L 0.229492 214.982819 C 15.444407 210.706268 23.048471 198.824463 23.041904 179.336945 L 23.018066 54.616302 C 23.011444 35.128662 27.478132 21.112335 36.418186 12.566772 C 45.358238 4.02124 59.705322 -0.254761 79.459877 -0.261414 L 90.671898 -0.265259 L 90.680397 24.961761 C 75.197189 25.233917 64.920486 27.639923 59.849895 32.179901 C 54.779305 36.719757 52.246384 45.930359 52.251072 59.812042 Z"/>
    </g>
</svg>
