{
  "accessors": [
    {
      "bufferView": 2,
      "componentType": 5126,
      "count": 62878,
      "max": [
        1485.0,
        863.5397338867188,
        245.49624633789063
      ],
      "min": [
        -1485.000732421875,
        -863.539794921875,
        -2.182761783819931e-11
      ],
      "type": "VEC3"
    },
    {
      "bufferView": 2,
      "byteOffset": 754536,
      "componentType": 5126,
      "count": 62878,
      "max": [
        0.7863776683807373,
        0.9999862313270569,
        1.0
      ],
      "min": [
        -0.6435288786888123,
        -0.9999956488609314,
        -0.9999746680259705
      ],
      "type": "VEC3"
    },
    {
      "bufferView": 1,
      "componentType": 5126,
      "count": 62878,
      "max": [
        1.0000008344650269,
        1.0000030994415283
      ],
      "min": [
        0.0,
        0.0
      ],
      "type": "VEC2"
    },
    {
      "bufferView": 0,
      "componentType": 5125,
      "count": 374220,
      "type": "SCALAR"
    },
    {
      "bufferView": 2,
      "byteOffset": 1509072,
      "componentType": 5126,
      "count": 62878,
      "max": [
        1018.6005859375,
        863.5399169921875,
        245.49624633789063
      ],
      "min": [
        -1485.000732421875,
        -863.539794921875,
        -2.182761783819931e-11
      ],
      "type": "VEC3"
    },
    {
      "bufferView": 2,
      "byteOffset": 2263608,
      "componentType": 5126,
      "count": 62878,
      "max": [
        0.9993231892585754,
        0.9999862313270569,
        1.0
      ],
      "min": [
        -0.9989604949951172,
        -0.9999916553497314,
        -0.9999747276306152
      ],
      "type": "VEC3"
    },
    {
      "bufferView": 1,
      "byteOffset": 503024,
      "componentType": 5126,
      "count": 62878,
      "max": [
        1.0000008344650269,
        1.0000030994415283
      ],
      "min": [
        0.0,
        0.0
      ],
      "type": "VEC2"
    },
    {
      "bufferView": 0,
      "byteOffset": 1496880,
      "componentType": 5125,
      "count": 374220,
      "type": "SCALAR"
    },
    {
      "bufferView": 2,
      "byteOffset": 3018144,
      "componentType": 5126,
      "count": 62878,
      "max": [
        1018.6005249023438,
        699.263671875,
        378.09576416015625
      ],
      "min": [
        -1485.000732421875,
        -699.192626953125,
        0.0
      ],
      "type": "VEC3"
    },
    {
      "bufferView": 2,
      "byteOffset": 3772680,
      "componentType": 5126,
      "count": 62878,
      "max": [
        0.9993153214454651,
        0.9999862313270569,
        1.0
      ],
      "min": [
        -0.9989607930183411,
        -0.9999922513961792,
        -0.9999747276306152
      ],
      "type": "VEC3"
    },
    {
      "bufferView": 1,
      "byteOffset": 1006048,
      "componentType": 5126,
      "count": 62878,
      "max": [
        1.0000008344650269,
        1.0000030994415283
      ],
      "min": [
        0.0,
        0.0
      ],
      "type": "VEC2"
    },
    {
      "bufferView": 0,
      "byteOffset": 2993760,
      "componentType": 5125,
      "count": 374220,
      "type": "SCALAR"
    },
    {
      "bufferView": 2,
      "byteOffset": 4527216,
      "componentType": 5126,
      "count": 62878,
      "max": [
        1485.0,
        699.263671875,
        378.09576416015625
      ],
      "min": [
        -1485.000732421875,
        -699.192626953125,
        0.0
      ],
      "type": "VEC3"
    },
    {
      "bufferView": 2,
      "byteOffset": 5281752,
      "componentType": 5126,
      "count": 62878,
      "max": [
        0.7864857316017151,
        0.9999862313270569,
        1.0
      ],
      "min": [
        -0.6435253024101257,
        -0.9999955296516418,
        -0.9999747276306152
      ],
      "type": "VEC3"
    },
    {
      "bufferView": 1,
      "byteOffset": 1509072,
      "componentType": 5126,
      "count": 62878,
      "max": [
        1.0000008344650269,
        1.0000030994415283
      ],
      "min": [
        0.0,
        0.0
      ],
      "type": "VEC2"
    },
    {
      "bufferView": 0,
      "byteOffset": 4490640,
      "componentType": 5125,
      "count": 374220,
      "type": "SCALAR"
    }
  ],
  "asset": {
    "extras": {
      "author": "SH3D | KUB (https://sketchfab.com/itskub)",
      "license": "CC-BY-4.0 (http://creativecommons.org/licenses/by/4.0/)",
      "source": "https://sketchfab.com/3d-models/other-origami-paper-plane-129daabbb4b741b99e2eb8ac4fddc70d",
      "title": "#Other - Origami Paper Plane"
    },
    "generator": "Sketchfab-12.67.0",
    "version": "2.0"
  },
  "bufferViews": [
    {
      "buffer": 0,
      "byteLength": 5987520,
      "name": "floatBufferViews",
      "target": 34963
    },
    {
      "buffer": 0,
      "byteLength": 2012096,
      "byteOffset": 5987520,
      "byteStride": 8,
      "name": "floatBufferViews",
      "target": 34962
    },
    {
      "buffer": 0,
      "byteLength": 6036288,
      "byteOffset": 7999616,
      "byteStride": 12,
      "name": "floatBufferViews",
      "target": 34962
    }
  ],
  "buffers": [
    {
      "byteLength": 14035904,
      "uri": "scene.bin"
    }
  ],
  "materials": [
    {
      "doubleSided": true,
      "name": "Material_2",
      "pbrMetallicRoughness": {
        "metallicFactor": 0.0,
        "roughnessFactor": 0.6
      }
    }
  ],
  "meshes": [
    {
      "name": "Plane_Material #2_0",
      "primitives": [
        {
          "attributes": {
            "NORMAL": 1,
            "POSITION": 0,
            "TEXCOORD_0": 2
          },
          "indices": 3,
          "material": 0,
          "mode": 4
        }
      ]
    },
    {
      "name": "Plane001_Material #2_0",
      "primitives": [
        {
          "attributes": {
            "NORMAL": 5,
            "POSITION": 4,
            "TEXCOORD_0": 6
          },
          "indices": 7,
          "material": 0,
          "mode": 4
        }
      ]
    },
    {
      "name": "Plane002_Material #2_0",
      "primitives": [
        {
          "attributes": {
            "NORMAL": 9,
            "POSITION": 8,
            "TEXCOORD_0": 10
          },
          "indices": 11,
          "material": 0,
          "mode": 4
        }
      ]
    },
    {
      "name": "Plane003_Material #2_0",
      "primitives": [
        {
          "attributes": {
            "NORMAL": 13,
            "POSITION": 12,
            "TEXCOORD_0": 14
          },
          "indices": 15,
          "material": 0,
          "mode": 4
        }
      ]
    }
  ],
  "nodes": [
    {
      "children": [
        1
      ],
      "matrix": [
        1.0,
        0.0,
        0.0,
        0.0,
        0.0,
        -4.241064166521369e-09,
        1.0,
        0.0,
        0.0,
        -1.0,
        -4.241064166521369e-09,
        0.0,
        0.0,
        -37.809574127197266,
        0.006896892562500188,
        1.0
      ],
      "name": "Sketchfab_model"
    },
    {
      "children": [
        2
      ],
      "matrix": [
        1.0,
        0.0,
        0.0,
        0.0,
        0.0,
        -1.0,
        0.0,
        0.0,
        0.0,
        0.0,
        -1.0,
        0.0,
        0.0,
        0.0,
        0.0,
        1.0
      ],
      "name": "105d90ae926245188679bed7f866a34f.fbx"
    },
    {
      "children": [
        3,
        5,
        7,
        9
      ],
      "name": "RootNode"
    },
    {
      "children": [
        4
      ],
      "matrix": [
        0.10000000149011612,
        0.0,
        0.0,
        0.0,
        0.0,
        0.10000000149011612,
        0.0,
        0.0,
        0.0,
        0.0,
        0.10000000149011612,
        0.0,
        0.0,
        150.0,
        0.0,
        1.0
      ],
      "name": "Plane"
    },
    {
      "mesh": 0,
      "name": "Plane_Material #2_0"
    },
    {
      "children": [
        6
      ],
      "matrix": [
        0.10000000149011612,
        0.0,
        0.0,
        0.0,
        0.0,
        0.10000000149011612,
        0.0,
        0.0,
        0.0,
        0.0,
        0.10000000149011612,
        0.0,
        0.0,
        -150.0,
        0.0,
        1.0
      ],
      "name": "Plane001"
    },
    {
      "mesh": 1,
      "name": "Plane001_Material #2_0"
    },
    {
      "children": [
        8
      ],
      "matrix": [
        0.10000000149011612,
        0.0,
        0.0,
        0.0,
        0.0,
        0.10000000149011612,
        0.0,
        0.0,
        0.0,
        0.0,
        0.10000000149011612,
        0.0,
        0.0,
        -450.0,
        0.0,
        1.0
      ],
      "name": "Plane002"
    },
    {
      "mesh": 2,
      "name": "Plane002_Material #2_0"
    },
    {
      "children": [
        10
      ],
      "matrix": [
        0.10000000149011612,
        0.0,
        0.0,
        0.0,
        0.0,
        0.10000000149011612,
        0.0,
        0.0,
        0.0,
        0.0,
        0.10000000149011612,
        0.0,
        0.0,
        450.0,
        0.0,
        1.0
      ],
      "name": "Plane003"
    },
    {
      "mesh": 3,
      "name": "Plane003_Material #2_0"
    }
  ],
  "scene": 0,
  "scenes": [
    {
      "name": "Sketchfab_Scene",
      "nodes": [
        0
      ]
    }
  ]
}
